<svg xmlns="http://www.w3.org/2000/svg" width="54.431" height="50" viewBox="0 0 54.431 50">
  <g id="logo" transform="translate(-0.001)">
    <path id="Path_1" data-name="Path 1" d="M20.281,11.553V28.215H18.1V11.58c-.263-.014-.457-.032-.651-.032-1.625,0-3.249.014-4.874-.009a.868.868,0,0,0-.835.475Q6.13,20.7.5,29.364c-.12.185-.24.365-.42.628a3.4,3.4,0,0,1-.065-.434c0-4.717-.046-9.434.009-14.151A15.236,15.236,0,0,1,12.324.374,16.914,16.914,0,0,1,15.836.028C28.469,0,41.1.018,53.73,0c.577,0,.706.175.7.72-.023,3.355-.014,6.706-.014,10.062a.641.641,0,0,1-.715.734H34.543a7.406,7.406,0,0,1,3.679,5.248h4.242V33.029h5.968V16.81h5.926V37.977H29.771v1.906h1.5v1.6H29.734v3.965c0,.748.217.937.978.882.166-.014.328-.037.577-.065a11.327,11.327,0,0,1-.018,1.255.492.492,0,0,1-.346.332,12.8,12.8,0,0,1-2.451.023c-.752-.106-1.122-.766-1.126-1.62-.009-1.362,0-2.728,0-4.089v-.628c-.268-.018-.48-.037-.738-.055V39.929l.692-.06V37.986H.079a4.886,4.886,0,0,1-.06-.512c0-1.288.009-2.58-.009-3.868,0-.406.12-.554.535-.54.942.023,1.883-.014,2.825.018a.833.833,0,0,0,.831-.475q3.981-6.5,7.989-12.988c.037-.06.088-.115.222-.291v13.7H25.658v-16.8a19.566,19.566,0,0,1,4.782.254,1.791,1.791,0,0,1,1.408,1.768,2.07,2.07,0,0,1-1.292,2.326,7.458,7.458,0,0,1-1.662.36,9.449,9.449,0,0,1-1.265.009,10.609,10.609,0,0,1-.009,1.385A5.5,5.5,0,0,0,28.931,26.6c1.514,1.971,2.852,4.076,4.283,6.111a.878.878,0,0,0,.6.351c2.049.028,4.1.014,6.148.014a3.6,3.6,0,0,0,.374-.051c-2.2-3.051-4.362-6.042-6.549-9.07.129-.088.226-.157.328-.222a6.17,6.17,0,0,0,3.254-6.393,6.1,6.1,0,0,0-4.8-5.317,14.493,14.493,0,0,0-3.655-.475c-2.751-.069-5.5-.023-8.253-.018-.092,0-.18.018-.383.037Z" transform="translate(0)" fill="teal"/>
    <path id="Path_2" data-name="Path 2" d="M7.5,93.337v3H5.16V86.266h2.3c.018.291.032.563.055.9a2.908,2.908,0,0,0,.318-.231,2.657,2.657,0,0,1,4.5.937,6.681,6.681,0,0,1,.023,4.7A2.685,2.685,0,0,1,7.828,93.6c-.065-.06-.143-.115-.332-.268Zm2.9-3.088a15.288,15.288,0,0,0-.355-1.592,1.189,1.189,0,0,0-2.22-.088,3.968,3.968,0,0,0-.009,3.355,1.189,1.189,0,0,0,2.239-.1A14.557,14.557,0,0,0,10.4,90.249Z" transform="translate(-2.778 -46.342)" fill="teal"/>
    <path id="Path_3" data-name="Path 3" d="M24.02,90.3a12.635,12.635,0,0,1,.254-1.569,3.717,3.717,0,0,1,4.283-2.575,3.647,3.647,0,0,1,3.254,3.6,8.34,8.34,0,0,1-.1,1.7,3.65,3.65,0,0,1-4.02,3,3.638,3.638,0,0,1-3.6-3.6c-.009-.185,0-.369,0-.554a.356.356,0,0,1-.069-.009Zm5.539-.009a9.674,9.674,0,0,0-.526-1.823,1.212,1.212,0,0,0-2.188,0,3.858,3.858,0,0,0,.009,3.656,1.218,1.218,0,0,0,2.215-.042,10,10,0,0,0,.489-1.782Z" transform="translate(-12.933 -46.368)" fill="teal"/>
    <path id="Path_4" data-name="Path 4" d="M76.9,91.107H72.076c.023,1.666,1.583,2.119,3.531,1,.323.438.655.886.983,1.329-1.934,1.726-6.051,1.509-6.831-1.874a5.328,5.328,0,0,1,.148-2.991,3.542,3.542,0,0,1,3.859-2.386,3.263,3.263,0,0,1,2.977,2.935c.1.628.106,1.269.162,1.994Zm-2.326-1.4c-.046-.711-.1-1.4-.752-1.749a1.3,1.3,0,0,0-1.066.032,1.806,1.806,0,0,0-.748,1.717h2.571Z" transform="translate(-37.482 -46.397)" fill="teal"/>
    <path id="Path_5" data-name="Path 5" d="M105.336,87.016c-.328.462-.651.923-.992,1.408a3.116,3.116,0,0,0-.5-.263,5.482,5.482,0,0,0-1.38-.318.984.984,0,0,0-.738.5c-.069.152.2.568.42.711.743.471,1.565.831,2.3,1.315a1.965,1.965,0,0,1,.886,2.437,2.109,2.109,0,0,1-1.26,1.315,5.41,5.41,0,0,1-5.017-.586c.374-.508.715-.974,1.071-1.459a7.012,7.012,0,0,0,1.135.563,4.151,4.151,0,0,0,1.348.157.736.736,0,0,0,.526-.462.771.771,0,0,0-.268-.642,10.837,10.837,0,0,0-1.2-.674,14.187,14.187,0,0,1-1.334-.78,2.072,2.072,0,0,1,.286-3.619,4.917,4.917,0,0,1,4.717.4Z" transform="translate(-53.333 -46.409)" fill="teal"/>
    <path id="Path_6" data-name="Path 6" d="M48.795,86.914c-.4.563-.72,1.011-1.038,1.454-.452-.175-.868-.36-1.3-.5a1.085,1.085,0,0,0-.646-.051,1.2,1.2,0,0,0-.688.5c-.065.162.175.54.378.688a12.24,12.24,0,0,0,1.255.692,9.951,9.951,0,0,1,1.223.748,2.067,2.067,0,0,1-.263,3.535,5.128,5.128,0,0,1-5.229-.535c.337-.452.678-.9,1.048-1.389a5.225,5.225,0,0,0,.923.485,5.73,5.73,0,0,0,1.5.249.78.78,0,0,0,.577-.466.823.823,0,0,0-.309-.674,13.641,13.641,0,0,0-1.352-.743,9.337,9.337,0,0,1-1.135-.678,2.066,2.066,0,0,1,.231-3.591,4.283,4.283,0,0,1,3.226-.3,16.974,16.974,0,0,1,1.615.582Z" transform="translate(-22.878 -46.395)" fill="teal"/>
    <path id="Path_7" data-name="Path 7" d="M92.81,88.33c-.194.037-.374.069-.549.106a1.732,1.732,0,0,0-1.551,1.842c-.028,1.122,0,2.243-.009,3.369,0,.217-.023.434-.037.669H88.37V86.355h2.285c.028.277.06.572.106.978a2.135,2.135,0,0,1,2.054-1.1v2.1Z" transform="translate(-47.582 -46.421)" fill="teal"/>
  </g>
</svg>
